<svg xmlns="http://www.w3.org/2000/svg" xmlns:xlink="http://www.w3.org/1999/xlink" style="margin:auto;background:#fff;display:block;" width="200px" height="200px" viewBox="0 0 100 100" preserveAspectRatio="xMidYMid">
<circle cx="50" cy="50" r="25" fill="#f8b26a"></circle>
<g>
  <path d="M43 23L57 23L50 10Z" transform="rotate(30 50 50)" fill="#e15b64"></path><path d="M43 23L57 23L50 10Z" transform="rotate(60 50 50)" fill="#e15b64"></path><path d="M43 23L57 23L50 10Z" transform="rotate(90 50 50)" fill="#e15b64"></path><path d="M43 23L57 23L50 10Z" transform="rotate(120 50 50)" fill="#e15b64"></path><path d="M43 23L57 23L50 10Z" transform="rotate(150 50 50)" fill="#e15b64"></path><path d="M43 23L57 23L50 10Z" transform="rotate(180 50 50)" fill="#e15b64"></path><path d="M43 23L57 23L50 10Z" transform="rotate(210 50 50)" fill="#e15b64"></path><path d="M43 23L57 23L50 10Z" transform="rotate(240 50 50)" fill="#e15b64"></path><path d="M43 23L57 23L50 10Z" transform="rotate(270 50 50)" fill="#e15b64"></path><path d="M43 23L57 23L50 10Z" transform="rotate(300 50 50)" fill="#e15b64"></path><path d="M43 23L57 23L50 10Z" transform="rotate(330 50 50)" fill="#e15b64"></path><path d="M43 23L57 23L50 10Z" transform="rotate(360 50 50)" fill="#e15b64"></path>
  <animateTransform attributeName="transform" type="rotate" repeatCount="indefinite" dur="1s" values="0 50 50;180 50 50" keyTimes="0;1"></animateTransform>
</g>
</svg>